<svg width="152" height="50" viewBox="0 0 152 50" fill="none" xmlns="http://www.w3.org/2000/svg">
<g clip-path="url(#clip0_848_883)">
<path d="M0 24.9755C0 17.5005 6.09632 11.4922 13.5751 11.4922C18.6054 11.4922 22.9778 14.1922 25.3181 18.2589L20.8458 20.4422C19.3217 18.0505 16.6233 16.4755 13.5751 16.4755C8.84467 16.4755 4.98033 20.2422 4.98033 24.9672C4.98033 29.6922 8.84467 33.4589 13.5751 33.4589C16.6233 33.4589 19.3217 31.9339 20.8458 29.5422L25.3181 31.7255C22.9778 35.7422 18.6054 38.4422 13.5751 38.4422C6.09632 38.4505 0 32.4505 0 24.9755Z" fill="#131315"/>
<path d="M29.6406 25.9408V12.1074H34.621V25.9408C34.621 30.5158 37.6191 33.5241 41.4835 33.5241C46.4138 33.5241 49.3121 29.4074 49.3121 24.4741V12.1074H54.2924V37.8991H49.3121V34.3908C47.4299 36.9324 44.6899 38.5074 41.0254 38.5074C34.063 38.5074 29.6406 32.9158 29.6406 25.9408Z" fill="#131315"/>
<path d="M59.8809 12.1091H64.8612V16.2841C66.7434 13.1841 69.6916 11.5508 73.6059 11.5508V16.5341C68.0676 16.5341 64.8612 19.2341 64.8612 27.3674V37.8924H59.8809V12.1091Z" fill="#131315"/>
<path d="M76.4038 24.975C76.4038 17.5 82.2003 11.5 89.6708 11.5C93.5851 11.5 96.7832 13.175 99.0735 15.5667V12.1083H104.054V37.9H99.0735V34.3917C96.7832 36.8333 93.5851 38.4583 89.6708 38.4583C82.2003 38.4583 76.4038 32.4583 76.4038 24.9833M90.1289 33.475C94.8593 33.475 98.8736 29.7083 98.8736 24.9833C98.8736 20.2583 94.8593 16.4917 90.1289 16.4917C85.3984 16.4917 81.4341 20.2583 81.4341 24.9833C81.4341 29.7083 85.3984 33.475 90.1289 33.475Z" fill="#131315"/>
<path d="M114.631 0H109.651V37.8917H114.631V0Z" fill="#131315"/>
<path d="M129.53 37.8908L118.445 12.1074H123.884L132.22 31.5324L140.557 12.1074H145.945L129.78 49.9991H124.342L129.53 37.8908Z" fill="#131315"/>
<path d="M145.438 35.1997C145.438 33.4164 146.912 31.9414 148.744 31.9414C150.576 31.9414 152 33.4164 152 35.1997C152 36.9831 150.526 38.5081 148.744 38.5081C146.962 38.5081 145.438 37.0331 145.438 35.1997Z" fill="#131315"/>
</g>
<defs>
<clipPath id="clip0_848_883">
<rect width="152" height="50" fill="white"/>
</clipPath>
</defs>
</svg>
