<?xml version="1.0" encoding="UTF-8"?><svg id="Layer_1" xmlns="http://www.w3.org/2000/svg" viewBox="0 0 542 215.78"><defs><style>.cls-1{fill:#050504;}.cls-2{fill:#3066af;}</style></defs><path class="cls-2" d="M176.84,140.14h-6.16v-2.05h14.79v2.05h-6.16v14.32h-2.53l.06-14.32Z"/><path class="cls-2" d="M203.87,154.46l-3.86-5h-5.55v5h-2.6v-16.35h7c1.94-.11,3.86,.42,5.46,1.52,1.32,.97,2.07,2.53,2,4.17,.04,1.16-.31,2.3-1,3.23-.75,.93-1.76,1.61-2.91,1.94l4.24,5.49h-2.78Zm-1.41-7.87c1.51-1.24,1.73-3.47,.5-4.98l-.02-.02c-.14-.17-.31-.34-.48-.48-1.1-.7-2.4-1.03-3.71-.94h-4.34v7.36h4.32c1.31,.1,2.62-.23,3.73-.94Z"/><path class="cls-2" d="M225.43,150.37h-9.51l-2,4.11h-2.64l8.1-16.35h2.62l8.12,16.35h-2.7l-1.99-4.11Zm-.9-1.86l-3.86-8-3.86,8h7.72Z"/><path class="cls-2" d="M250.88,138.11l-7.88,16.35h-2.52l-7.9-16.35h2.77l6.47,13.43,6.5-13.43h2.56Z"/><path class="cls-2" d="M269.72,152.43v2h-13v-16.32h12.63v2h-10.04v5h9v2h-9v5.28l10.41,.04Z"/><path class="cls-2" d="M277.43,138.11h2.57v14.32h9.68v2h-12.25v-16.32Z"/><path class="cls-2" d="M318,150.37h-9.51l-2,4.11h-2.63l8.1-16.35h2.53l8.13,16.35h-2.62l-2-4.11Zm-.89-1.86l-3.86-8-3.86,8h7.72Z"/><path class="cls-2" d="M344.29,138.11v16.35h-2.05l-10.73-12.2v12.2h-2.6v-16.35h2.09l10.72,12.19v-12.19h2.57Z"/><path class="cls-2" d="M353.23,138.11h7.55c1.72-.04,3.43,.3,5,1,1.39,.62,2.57,1.62,3.41,2.89,1.61,2.62,1.61,5.91,0,8.53-.84,1.26-2.02,2.26-3.41,2.88-1.57,.69-3.28,1.04-5,1h-7.55v-16.3Zm7.4,14.32c1.31,.03,2.62-.24,3.82-.77,2.97-1.32,4.31-4.79,2.99-7.76-.59-1.33-1.66-2.4-2.99-2.99-1.2-.54-2.51-.8-3.82-.77h-4.82v12.32l4.82-.03Z"/><path class="cls-2" d="M391.92,140.14h-6.16v-2.05h14.79v2.05h-6.16v14.32h-2.53l.06-14.32Z"/><path class="cls-2" d="M409.88,153.56c-1.38-.67-2.56-1.71-3.4-3-1.65-2.61-1.65-5.94,0-8.55,.84-1.29,2.01-2.33,3.4-3,3.08-1.45,6.66-1.45,9.74,0,1.38,.67,2.56,1.71,3.4,3,1.64,2.62,1.64,5.95,0,8.57-.84,1.29-2.02,2.33-3.4,3-3.08,1.45-6.66,1.45-9.74,0v-.02Zm8.42-1.81c3.02-1.5,4.26-5.17,2.76-8.19-.09-.17-.18-.34-.28-.5-.61-.96-1.46-1.73-2.48-2.24-1.1-.56-2.31-.84-3.54-.83-1.24-.01-2.46,.27-3.56,.83-3.01,1.39-4.33,4.95-2.94,7.96,.6,1.3,1.64,2.34,2.94,2.94,1.1,.55,2.32,.83,3.56,.82,1.21,.01,2.41-.27,3.49-.82l.05,.03Z"/><path class="cls-2" d="M433.57,152.75c-1.4-1.42-2.13-3.38-2-5.37v-9.3h2.55v9.23c0,3.5,1.67,5.25,5,5.26,1.38,.09,2.73-.38,3.76-1.3,.96-1.1,1.44-2.54,1.31-4v-9.23h2.47v9.3c.13,2-.59,3.95-2,5.38-3.3,2.49-7.84,2.49-11.14,0l.05,.03Z"/><path class="cls-2" d="M467.48,154.46l-3.87-5h-5.54v5h-2.56v-16.35h7c1.94-.12,3.87,.42,5.47,1.52,1.32,.97,2.07,2.53,2,4.17,.04,1.16-.31,2.3-1,3.23-.75,.93-1.77,1.61-2.92,1.94l4.24,5.49h-2.82Zm-1.36-7.87c1.5-1.26,1.71-3.49,.45-5-.13-.16-.29-.32-.45-.45-1.1-.7-2.4-1.03-3.7-.94h-4.34v7.36h4.34c1.31,.09,2.61-.25,3.7-.97Z"/><path class="cls-2" d="M477.67,138.11h2.56v16.35h-2.56v-16.35Z"/><path class="cls-2" d="M490.49,154.07c-1.09-.28-2.11-.79-3-1.48l.94-1.83c.79,.61,1.68,1.08,2.63,1.38,1.06,.35,2.17,.53,3.28,.52,1.15,.08,2.3-.16,3.32-.68,.68-.36,1.1-1.07,1.1-1.84,.02-.52-.2-1.03-.6-1.37-.43-.37-.94-.64-1.48-.81-.59-.18-1.42-.39-2.5-.62-1.1-.23-2.19-.53-3.25-.9-.8-.28-1.53-.75-2.12-1.36-.61-.68-.93-1.58-.88-2.49,0-.85,.26-1.67,.75-2.36,.59-.76,1.38-1.35,2.29-1.68,1.22-.46,2.51-.68,3.81-.64,1.04,0,2.07,.13,3.08,.38,.95,.22,1.85,.59,2.67,1.11l-.85,1.87c-.75-.44-1.56-.78-2.4-1-.82-.22-1.66-.33-2.5-.34-1.14-.07-2.27,.18-3.27,.73-.66,.39-1.07,1.1-1.07,1.87-.02,.52,.2,1.03,.6,1.37,.45,.36,.97,.64,1.52,.81,.81,.25,1.64,.46,2.48,.62,1.1,.23,2.18,.52,3.24,.89,.8,.28,1.52,.74,2.1,1.35,.61,.67,.93,1.55,.89,2.45,0,.85-.27,1.67-.77,2.36-.6,.77-1.4,1.35-2.32,1.68-1.23,.44-2.53,.65-3.84,.62-1.31-.01-2.6-.22-3.85-.61Z"/><path class="cls-2" d="M525.21,154.46v-11.92l-6.46,9.94h-1.18l-6.47-9.87v11.85h-2.44v-16.35h2.05l7.46,11.49,7.36-11.49h2.05v16.35h-2.37Z"/><path class="cls-2" d="M214.23,120.59h-11.66l-21-35.93v35.93h-10.86v-54.54h11.6l21,35.93v-35.93h10.9l.02,54.54Z"/><path class="cls-2" d="M238.77,110.65c.4,.12,.81,.2,1.23,.24,.4,.04,.81,.06,1.21,.06,1.97,0,3.89-.56,5.55-1.62,.83-.52,1.57-1.16,2.21-1.9,.64-.75,1.17-1.59,1.57-2.49l7.59,7.64c-1.91,2.73-4.46,4.95-7.43,6.47-1.45,.76-3,1.34-4.59,1.73-9.97,2.53-20.27-2.7-24.11-12.24-1.1-2.75-1.65-5.69-1.62-8.65-.04-3.02,.51-6.02,1.62-8.83,2.02-5.09,6.03-9.12,11.11-11.17,5.71-2.35,12.16-2.06,17.63,.81,2.95,1.55,5.5,3.77,7.43,6.49l-19.4,23.46Zm5.32-21.41c-.46-.17-.94-.29-1.43-.34-.48-.06-.97-.08-1.45-.08-1.37,0-2.73,.26-4,.78-1.23,.5-2.34,1.26-3.26,2.22-.95,1.01-1.69,2.19-2.18,3.48-.54,1.47-.8,3.03-.77,4.59,0,.39,0,.82,.06,1.3,.08,.97,.25,1.94,.52,2.88,.11,.43,.27,.84,.49,1.22l12.02-16.05Z"/><path class="cls-2" d="M314.68,105.89c.01,2.06-.4,4.1-1.21,6-.77,1.84-1.9,3.51-3.31,4.92-1.42,1.41-3.1,2.53-4.94,3.31-1.91,.82-3.97,1.23-6.05,1.22-1.89,0-3.77-.33-5.54-1-1.78-.67-3.41-1.67-4.82-2.94-1.39,1.27-3,2.27-4.76,2.94-1.78,.67-3.66,1.01-5.56,1-2.06,0-4.1-.41-6-1.22-1.84-.78-3.52-1.91-4.94-3.32-1.42-1.41-2.55-3.08-3.33-4.92-.8-1.9-1.22-3.94-1.21-6v-25.99h10.39v26c0,.69,.13,1.37,.4,2,.26,.61,.63,1.17,1.1,1.64,.96,.96,2.26,1.5,3.62,1.5,.71,.01,1.41-.12,2.06-.4,.62-.26,1.18-.63,1.66-1.1,.98-.95,1.53-2.26,1.52-3.63v-26.01h10.24v26c0,.69,.14,1.37,.42,2,.27,.61,.65,1.17,1.12,1.64,.47,.47,1.02,.84,1.63,1.1,.63,.27,1.31,.41,2,.4,1.37,0,2.69-.53,3.67-1.5,.48-.48,.87-1.03,1.16-1.64,.27-.63,.41-1.31,.41-2v-26h10.31l-.04,26Z"/><path class="cls-2" d="M364.89,66.05l-17.89,54.54h-10.88l-17.79-54.54h12.37l10.85,36.39,10.88-36.4h12.46Z"/><path class="cls-2" d="M381.2,68.79c0,.93-.18,1.85-.55,2.7-.72,1.65-2.05,2.97-3.72,3.66-1.73,.75-3.69,.75-5.42,0-.82-.35-1.57-.85-2.21-1.48-.62-.63-1.12-1.37-1.48-2.18-.74-1.72-.74-3.67,0-5.39,.36-.82,.86-1.57,1.48-2.21,.64-.63,1.39-1.13,2.21-1.48,1.73-.73,3.69-.73,5.42,0,1.67,.7,3,2.02,3.72,3.69,.37,.85,.55,1.77,.55,2.69Zm-1.78,51.8h-10.42v-40.7h10.44l-.02,40.7Z"/><path class="cls-2" d="M409.62,120.59h-23.68v-10.35h23.68c1.42,0,2.57-1.16,2.57-2.58,.08-.59-.22-1.18-.75-1.45-.58-.24-1.2-.36-1.82-.34h-10.78c-1.72,.02-3.42-.32-5-1-3.1-1.35-5.55-3.85-6.84-6.98-1.34-3.24-1.34-6.88,0-10.12,1.28-3.09,3.72-5.56,6.8-6.88,1.58-.67,3.28-1.01,5-1h21v10.34h-21c-1.42,.02-2.57,1.17-2.58,2.59-.02,.71,.26,1.39,.76,1.88,.47,.51,1.13,.79,1.82,.78h10.78c1.71-.01,3.4,.29,5,.89,1.51,.57,2.9,1.41,4.1,2.5,2.45,2.25,3.82,5.43,3.79,8.75,.02,1.72-.32,3.42-1,5-.66,1.53-1.6,2.92-2.77,4.1-2.41,2.43-5.69,3.8-9.11,3.81l.03,.06Z"/><path class="cls-2" d="M440.23,68.79c0,.93-.18,1.85-.54,2.7-.72,1.66-2.06,2.97-3.73,3.66-1.73,.74-3.69,.74-5.42,0-.82-.35-1.57-.85-2.2-1.48-.62-.63-1.13-1.37-1.48-2.18-.73-1.72-.73-3.67,0-5.39,.35-.82,.85-1.57,1.48-2.21,.63-.63,1.38-1.13,2.2-1.48,1.73-.74,3.69-.74,5.42,0,.83,.35,1.58,.86,2.23,1.48,.63,.64,1.14,1.39,1.5,2.21,.36,.85,.54,1.77,.54,2.69Zm-1.78,51.8h-10.45v-40.7h10.43l.02,40.7Z"/><path class="cls-2" d="M485.61,99.89c.02,2.91-.53,5.8-1.63,8.5-1.03,2.53-2.54,4.84-4.44,6.81-1.88,1.92-4.12,3.45-6.58,4.53-10.48,4.46-22.59-.41-27.05-10.89-.06-.13-.11-.27-.17-.4-1.11-2.71-1.67-5.62-1.64-8.55-.03-2.95,.53-5.87,1.64-8.6,1.03-2.54,2.54-4.86,4.45-6.83,1.89-1.91,4.13-3.44,6.6-4.5,2.55-1.1,5.3-1.65,8.07-1.64,2.79,0,5.55,.53,8.14,1.57,2.47,1,4.71,2.49,6.58,4.38,1.91,1.95,3.42,4.26,4.44,6.8,1.1,2.81,1.64,5.8,1.59,8.82Zm-10.43,0c.02-1.55-.26-3.09-.82-4.54-.51-1.3-1.26-2.49-2.22-3.51-.93-.96-2.05-1.72-3.28-2.24-2.57-1.04-5.43-1.04-8,0-1.24,.51-2.35,1.27-3.27,2.24-.95,1.02-1.69,2.21-2.18,3.51-.55,1.45-.81,2.99-.79,4.54-.02,1.5,.25,2.98,.79,4.38,.5,1.29,1.24,2.48,2.18,3.5,.93,.98,2.04,1.77,3.27,2.33,1.25,.58,2.62,.87,4,.86,2.74,.02,5.37-1.08,7.28-3.05,.96-1.01,1.72-2.2,2.22-3.5,.56-1.44,.84-2.97,.82-4.52Z"/><path class="cls-2" d="M501.7,120.59h-10.37v-40.7h2.5l3.42,4c3.36-3.08,7.76-4.78,12.32-4.76,2.41-.01,4.79,.48,7,1.43,2.15,.92,4.11,2.25,5.76,3.91,1.66,1.67,2.98,3.65,3.89,5.82,.96,2.24,1.44,4.66,1.43,7.1v23.2h-10.36v-23.28c0-1.03-.2-2.05-.6-3-.4-.93-.97-1.78-1.68-2.5-.71-.7-1.54-1.27-2.46-1.67-.95-.4-1.97-.61-3-.61-4.3-.04-7.81,3.41-7.85,7.71,0,.03,0,.06,0,.09v23.26Z"/><path class="cls-2" d="M148.18,98.48l-.37-.06c-36.77-5.69-73.2,12.12-91.29,44.64-.85-18.89,8.07-36.9,23.62-47.67-10.84-2.93-21.02-7.9-30-14.64C11.92,52.13,14.46,9.54,14.38,9.21h0c10.26,35.81,42,61,78.91,64.33,28.96,2.6,45.24,4.94,54.89,24.94Z"/><path class="cls-1" d="M178.75,181.89h1.47v6c.08,2.17,1.22,3.83,3.69,3.83h1.09v1.39h-.87c-1.57,0-3.04-.78-3.94-2.07v2.09c-.08,2.65-2.29,4.73-4.94,4.65h-.06c-.94-.04-1.86-.29-2.69-.73l-.16-1.36c.83,.45,1.75,.69,2.69,.7,1.91,.09,3.54-1.36,3.67-3.26l.05-11.24Z"/><path class="cls-1" d="M198.18,185.89c0,2.43-1.35,4.66-3.5,5.79,.21,.06,.43,.1,.65,.11h5.6v1.39h-5.14c-1-.07-1.98-.28-2.91-.63-.93,.35-1.91,.56-2.91,.63h-5.1v-1.39h5.57c.23-.01,.46-.05,.68-.11-2.18-1.1-3.56-3.34-3.54-5.79,0-2.93,2.37-5.3,5.3-5.3s5.3,2.37,5.3,5.3h0Zm-5.3,5.22c2.2-.8,3.71-2.85,3.83-5.19,0-1.85-1.41-4.21-3.83-4.21s-3.83,2.36-3.83,4.21c.14,2.33,1.64,4.36,3.83,5.17v.02Zm.79-13.75h-1.67v-1.82h1.71l-.04,1.82Z"/><path class="cls-1" d="M200.71,193.16v-1.39h2.45c1.65,.14,3.1-1.09,3.24-2.74,.02-.2,.01-.4-.01-.6v-6.54h1.47v6c0,2.2,1.08,4.22,3.5,4.22,1.65,.15,3.11-1.07,3.25-2.72,.02-.22,.01-.43-.01-.65v-6.85h1.46v6c0,2.2,1.09,4.22,3.51,4.22,1.65,.14,3.1-1.08,3.24-2.73,.02-.21,.01-.42-.01-.64v-7.69h1.47v7.22c.25,1.88,1.17,3.51,3.51,3.51h1.38v1.39h-1.16c-1.62-.06-3.09-.93-3.94-2.31l-.1-.17c-.5,1.76-2.18,2.92-4,2.77-1.78-.1-3.39-1.12-4.24-2.69-.58,1.69-2.22,2.79-4,2.69-1.6,.05-3.08-.81-3.83-2.22-.16-.23-.3-.46-.43-.71-.53,1.7-2.17,2.8-3.94,2.64h-2.81Z"/><path class="cls-1" d="M229,193.16v-1.39h2.34c1.65,.14,3.1-1.09,3.24-2.74,.02-.2,.01-.4-.01-.6v-12.91h1.47v12.69c0,1.41-.33,4.95-4.32,4.95h-2.72Z"/><path class="cls-1" d="M241.45,193.16h-1.45v-17.64h1.47l-.02,17.64Z"/><path class="cls-1" d="M250.91,193.16c-3.24,.08-5.92-2.48-6-5.72,0-.05,0-.1,0-.15-.14-3.31,2.43-6.11,5.74-6.24,.09,0,.17,0,.26,0h4.67v12.14c.17,2.41-1.64,4.51-4.05,4.68-.32,.02-.63,.01-.95-.03-.93-.08-1.84-.33-2.69-.73,0,0-.08-.68-.17-1.36,.82,.46,1.75,.7,2.69,.7,2.21,.09,3.65-1.19,3.67-3.28h-3.17Zm3.2-1.39v-9.38h-3.2c-2.48,.11-4.43,2.16-4.41,4.65-.12,2.49,1.8,4.6,4.28,4.73,.04,0,.08,0,.13,0h3.2Z"/><path class="cls-1" d="M267.46,191.77c-2.45-.14-4.33-2.25-4.19-4.7,.08-4.13,3.37-5.63,8.07-5.3v-1.17l1.47-.46v8.37c.08,2.09,1.25,3.26,3.23,3.26h1.5v1.39h-1.88c-2.17,.15-4.05-1.48-4.21-3.66v-.07c-.79,1.46-2.33,2.36-3.99,2.34Zm.24-1.3c4,0,3.7-4.35,3.64-7.34-1.76,.05-6.3-.6-6.55,3.91-.05,.98,.55,3.43,2.91,3.43h0Zm.22-14.11h-1.71v1.85h1.71v-1.85Zm3.72,0h-1.71v1.85h1.71v-1.85Z"/><path class="cls-1" d="M277.32,193.16v-1.39h13.68v-1.55c.05-3.61-1.58-7.8-6.09-7.8-2.34,0-4,1.06-4.35,3.21h-1.38c.24-3.18,2.85-4.59,5.73-4.59,5.33,0,7.58,4.34,7.58,9.18v2.94h-15.17Z"/><path class="cls-1" d="M300.78,193.16c-4,0-4.32-3.54-4.32-4.95v-12.69h1.46v12.91c-.19,1.65,.99,3.14,2.63,3.33,.19,.02,.39,.03,.58,.01h1.3v1.39h-1.65Z"/><path class="cls-1" d="M302.22,193.16v-1.39h2.23c1.65,.14,3.1-1.09,3.24-2.74,.02-.2,.01-.4-.01-.6v-6.54h1.47v5.85c.05,2.25,1.19,4,3.69,4h1.16v1.39h-.87c-1.83,0-3.51-1.04-4.3-2.69-.52,1.74-2.19,2.87-4,2.69l-2.61,.03Zm3.31,4.72h-1.71v-1.84h1.71v1.84Zm3.73,0h-1.72v-1.84h1.72v1.84Z"/><path class="cls-1" d="M313.71,193.16v-1.39h2.45c1.65,.14,3.1-1.09,3.24-2.74,.02-.2,.01-.4-.01-.6v-6.54h1.47v6c0,2.2,1.09,4.22,3.51,4.22,1.65,.14,3.1-1.08,3.24-2.73,.02-.21,.01-.42-.01-.64v-6.85h1.47v6c0,2.2,1.09,4.22,3.5,4.22,1.65,.15,3.11-1.07,3.25-2.72,.02-.22,.01-.43-.01-.65v-7.69h1.47v7.22c.24,1.88,1.16,3.51,3.5,3.51h1.39v1.39h-1.17c-1.62-.06-3.1-.93-3.94-2.31l-.11-.17c-.49,1.77-2.17,2.94-4,2.77-1.78-.1-3.39-1.12-4.24-2.69-.58,1.69-2.22,2.79-4,2.69-1.6,.06-3.09-.81-3.83-2.22-.16-.23-.31-.46-.44-.71-.53,1.7-2.17,2.8-3.94,2.64h-2.79Z"/><path class="cls-1" d="M341.68,193.16v-1.39h2.47c1.65,.14,3.11-1.08,3.25-2.73,.02-.2,.01-.41,0-.61v-12.91h1.47v12.23c0,2.25,1.19,4,3.69,4h1.93v1.39h-1.68c-1.83,.01-3.51-1.04-4.3-2.69-.52,1.74-2.2,2.86-4,2.69l-2.82,.02Z"/><path class="cls-1" d="M354.24,193.16v-1.39h2.33c1.65,.14,3.11-1.08,3.25-2.73,.02-.2,.01-.41,0-.61v-12.91h1.46v12.69c0,1.41-.32,4.95-4.32,4.95h-2.71Z"/><path class="cls-1" d="M380.38,186.63c0,3.26-1.82,6.53-5.76,6.53s-5.68-3.27-5.68-6.53,1.9-6.46,5.68-6.46h5.76v6.46Zm-1.6-5.13h-4.16c-2.85,0-4.1,2.82-4.1,5.13s1.22,5.19,4.1,5.19,4.16-2.9,4.16-5.19v-5.13Zm-3.7-6.85h-1.71v1.82h1.71v-1.82Zm3.72,0h-1.71v1.82h1.71v-1.82Z"/><path class="cls-1" d="M391.55,185c-.16-2-1.11-2.63-2.83-2.63-1.55,0-2.93,.46-3.15,2.12h-1.44c.38-2.53,2.26-3.48,4.59-3.48,2.72,0,4.35,1.25,4.35,4.05v6.71h3.86v1.39h-13.13v-1.39h7.75v-6.77Z"/><path class="cls-1" d="M396.8,193.16v-1.39h2.33c1.65,.14,3.11-1.08,3.25-2.73,.02-.2,.01-.41,0-.61v-7.39h1.46v7.17c0,1.41-.32,4.95-4.32,4.95h-2.71Zm1.74,4.72h-1.72v-1.84h1.72v1.84Zm3.72,0h-1.71v-1.84h1.71v1.84Z"/><path class="cls-1" d="M415,185c-.16-2-1.11-2.63-2.82-2.63-1.55,0-2.94,.46-3.15,2.12h-1.45c.39-2.53,2.26-3.48,4.6-3.48,2.72,0,4.35,1.25,4.35,4.05v6.71h3.85v1.39h-13.12v-1.39h7.74v-6.77Z"/><path class="cls-1" d="M420.14,193.16v-1.39h13.7v-1.55c0-3.61-1.58-7.8-6.09-7.8-2.34,0-4,1.06-4.35,3.21h-1.4c.25-3.18,2.86-4.59,5.74-4.59,5.33,0,7.58,4.34,7.58,9.18v1.55h4v1.39h-19.18Zm8.45,4.7h-1.71v-1.85h1.71v1.85Z"/><path class="cls-1" d="M439.25,193.16v-1.39h2.33c1.65,.14,3.11-1.08,3.25-2.73,.02-.2,.01-.41,0-.61v-12.91h1.47v12.69c0,1.41-.33,4.95-4.32,4.95h-2.72Z"/><path class="cls-1" d="M451.67,193.16h-1.47v-17.64h1.47v17.64Z"/><path class="cls-1" d="M463.54,191.77c-2.45-.15-4.32-2.25-4.18-4.7,.08-4.13,3.37-5.63,8.07-5.3v-1.17l1.47-.46v8.37c.08,2.09,1.25,3.26,3.23,3.26h1.49v1.39h-1.87c-2.17,.15-4.05-1.48-4.21-3.66v-.07c-.8,1.47-2.34,2.37-4,2.34Zm.25-1.3c4,0,3.7-4.35,3.64-7.34-1.77,.05-6.3-.6-6.55,3.91-.05,.98,.54,3.43,2.91,3.43h0Zm.22-14.11h-1.72v1.85h1.71v-1.85Zm3.73,0h-1.73v1.85h1.71l.02-1.85Z"/><path class="cls-1" d="M473.52,193.16v-1.39h2.34c1.65,.14,3.1-1.09,3.24-2.74,.02-.2,.01-.4-.01-.6v-7.39h1.47v7.17c0,1.41-.33,4.95-4.32,4.95h-2.72Zm1.74,4.72h-1.71v-1.84h1.71v1.84Zm3.72,0h-1.71v-1.84h1.73l-.02,1.84Z"/><path class="cls-1" d="M490,193.16c-3.23,.08-5.92-2.47-6-5.7,0-.06,0-.11,0-.17-.14-3.31,2.43-6.11,5.74-6.24,.09,0,.17,0,.26,0h4.68v12.14c.17,2.41-1.64,4.51-4.05,4.68-.32,.02-.63,.01-.95-.03-.93-.08-1.85-.33-2.69-.73,0,0-.09-.68-.17-1.36,.82,.46,1.75,.7,2.69,.7,1.75,.26,3.38-.94,3.64-2.69,.03-.19,.04-.39,.03-.59h-3.18Zm3.21-1.39v-9.38h-3.21c-2.48,.11-4.42,2.17-4.4,4.65-.12,2.49,1.8,4.6,4.28,4.73,.04,0,.08,0,.12,0h3.21Zm-2.42-13.13c.68,0,1.32-.36,1.66-.95l-.81-.7c-.12,.33-.43,.56-.79,.57h-2.2v-1.47c0-1.06,.38-1.88,1.27-1.88,.61-.03,1.14,.44,1.17,1.05,0,.03,0,.07,0,.1h1.06c-.01-1.2-.99-2.16-2.19-2.15h-.01c-1.74,0-2.39,1.38-2.39,2.88v1.47h-1l-.38,1.08h4.61Z"/><path class="cls-1" d="M502.76,181.89h1.47v6c.08,2.17,1.22,3.83,3.69,3.83h1.08v1.39h-.87c-1.57,0-3.04-.78-3.94-2.07v2.09c-.08,2.65-2.29,4.73-4.94,4.65h-.06c-.94-.04-1.86-.29-2.69-.73l-.16-1.36c.83,.44,1.75,.68,2.69,.7,1.91,.09,3.54-1.36,3.67-3.26l.06-11.24Z"/><path class="cls-1" d="M509,193.16v-1.39h2.33c1.65,.14,3.11-1.08,3.25-2.73,.02-.2,.01-.41,0-.61v-12.91h1.43v12.69c0,1.41-.32,4.95-4.32,4.95h-2.68Z"/><path class="cls-1" d="M521.4,193.16h-1.46v-17.64h1.46v17.64Z"/></svg>