<svg xmlns="http://www.w3.org/2000/svg" xmlns:xlink="http://www.w3.org/1999/xlink" width="109" height="47.526"><defs><clipPath id="b"><path data-name="Path 28" d="M102.786 33.594a1.991 1.991 0 0 0-.325 1.26 1.041 1.041 0 0 0 .517.888 2.028 2.028 0 0 0 1.149.349 1.332 1.332 0 0 0 .99-.484 1.5 1.5 0 0 0 .45-1.047 1.17 1.17 0 0 0-.519-1 2.152 2.152 0 0 0-1.282-.372h-.083a1.186 1.186 0 0 0-.9.41m-25.622-7.112a3.176 3.176 0 0 0-1.208 1.294 3.557 3.557 0 0 0-.9-1.237 2.028 2.028 0 0 0-1.329-.429 1.171 1.171 0 0 0-.765.26.74.74 0 0 0-.311.574 1.4 1.4 0 0 0 .561 1.1 2.073 2.073 0 0 1 .535.754 2.422 2.422 0 0 1 .215.979 32.06 32.06 0 0 1-.2 4.37 3.958 3.958 0 0 0-.092.856.716.716 0 0 0 .462.64 1.921 1.921 0 0 0 .889.235.817.817 0 0 0 .8-.4 2.259 2.259 0 0 0 .215-1.059c0-.614.019-1.159.055-1.633s.1-1.121.192-1.948a4.1 4.1 0 0 1 .562-1.642 2.144 2.144 0 0 1 .7-.631 1.785 1.785 0 0 1 .877-.225 1.267 1.267 0 0 1 1.036.407 3.03 3.03 0 0 1 .54 1.147 8.58 8.58 0 0 1 .157 1.147c.045.512.069 1.038.069 1.578v.967a9.464 9.464 0 0 0-.024.99 1.194 1.194 0 0 0 1.303 1.308.763.763 0 0 0 .732-.394 1.936 1.936 0 0 0 .213-.958c0-.209-.01-.445-.031-.708s-.035-.455-.035-.574a10.992 10.992 0 0 1-.069-1.194 10.549 10.549 0 0 1 .114-1.633 4.272 4.272 0 0 1 .427-1.317 1.528 1.528 0 0 1 .6-.64 1.575 1.575 0 0 1 .844-.26 1.441 1.441 0 0 1 1.531 1 7.557 7.557 0 0 1 .337 2.4 18.622 18.622 0 0 0 .092 2.061 3.5 3.5 0 0 0 .429 1.339 1.848 1.848 0 0 0 1.734.879 1.527 1.527 0 0 0 .562-.157 3.87 3.87 0 0 0 .564-.292.872.872 0 0 0 .247-.789c0-.09-.071-.176-.215-.258a2.254 2.254 0 0 0-.528-.215q-.654-.226-.766-1.419l-.092-1.306a16.288 16.288 0 0 0-.157-2.341 4.694 4.694 0 0 0-1.227-2.1 2.786 2.786 0 0 0-2.016-.922 4.368 4.368 0 0 0-1.836.4 3.993 3.993 0 0 0-1.476 1.125 8.453 8.453 0 0 0-.676-.912 1.8 1.8 0 0 0-.687-.472 2.952 2.952 0 0 0-1.092-.17h-.142a3.724 3.724 0 0 0-1.715.419m16.983 7.65a.936.936 0 0 1-.666-.292.952.952 0 0 1-.3-.72 1.218 1.218 0 0 1 .675-1.194 3.412 3.412 0 0 1 1.557-.337 12.861 12.861 0 0 1 2.093.2 2.577 2.577 0 0 0-.022.382 4.01 4.01 0 0 1-.137 1.014 7.756 7.756 0 0 1-1.576.742 5.446 5.446 0 0 1-1.483.2h-.138m-.266-7.869a3.61 3.61 0 0 0-1.339.709 1.435 1.435 0 0 0-.557 1.135 1.262 1.262 0 0 0 .17.619.568.568 0 0 0 .528.3 1.169 1.169 0 0 0 .948-.294 1.817 1.817 0 0 1 1.439-.744 3.135 3.135 0 0 1 1.9.464 2.013 2.013 0 0 1 .6 1.676v.022a9.383 9.383 0 0 0-2.163-.225 5.794 5.794 0 0 0-1.586.247 5.2 5.2 0 0 0-1.5.675 3.642 3.642 0 0 0-.913.936 2.059 2.059 0 0 0-.348 1.159 2.822 2.822 0 0 0 .843 2.22 3.216 3.216 0 0 0 2.22.753 7.855 7.855 0 0 0 1.993-.315 4.324 4.324 0 0 0 1.744-.834 3.192 3.192 0 0 0 .879.891 2.36 2.36 0 0 0 1.171.235.763.763 0 0 0 .557-.327.943.943 0 0 0 .28-.55.891.891 0 0 0-.092-.407.871.871 0 0 0-.382-.337 1.451 1.451 0 0 1-.495-.45 1 1 0 0 1-.182-.562 6.312 6.312 0 0 1 .047-.676 3.467 3.467 0 0 0 .045-.519c0-.284.017-.652.047-1.1.031-.391.047-.683.047-.879a3.894 3.894 0 0 0-.374-1.7 4.14 4.14 0 0 0-1.045-1.363A4.324 4.324 0 0 0 96.9 26.3a5.48 5.48 0 0 0-1.555-.272 5.131 5.131 0 0 0-1.465.237m-25.767.088a1.245 1.245 0 0 0-.268.824 18.323 18.323 0 0 1-.112 1.848q-.047.337-.092 1.059a11.014 11.014 0 0 1-.213 1.732 2.4 2.4 0 0 1-.621 1.126 3.783 3.783 0 0 1-.877.721 2.182 2.182 0 0 1-1.059.225 1.305 1.305 0 0 1-.609-.18 1.13 1.13 0 0 1-.495-.495 6.36 6.36 0 0 1-.427-2.545q0-.519.09-1.465c.062-.54.092-.893.092-1.057a1.628 1.628 0 0 0-.54-1.317 2.08 2.08 0 0 0-1.4-.464 2.051 2.051 0 0 0-.72.157c-.27.106-.45.182-.54.227a1.35 1.35 0 0 0-.452.969.472.472 0 0 0 .145.348.454.454 0 0 0 .327.147 1.754 1.754 0 0 0 .355-.04 1.763 1.763 0 0 1 .3-.033.467.467 0 0 1 .325.137.437.437 0 0 1 .147.339q0 .675-.067 1.484-.091 1.261-.092 2.1a3.3 3.3 0 0 0 .1.946c.067.209.109.329.123.36a3.6 3.6 0 0 0 1.216 1.666 2.863 2.863 0 0 0 1.779.721 5.917 5.917 0 0 0 1.306-.147 3.092 3.092 0 0 0 1.1-.462 12.484 12.484 0 0 0 1.419-1.419 3.367 3.367 0 0 0 .9 1.465 2.061 2.061 0 0 0 1.443.562.809.809 0 0 0 .552-.237.682.682 0 0 0 .258-.507.661.661 0 0 0-.137-.372 9.546 9.546 0 0 0-.587-.687 6.116 6.116 0 0 1-.382-.618 4.166 4.166 0 0 1-.315-.734 9.043 9.043 0 0 1-.225-2.363l-.021-1.17a5.063 5.063 0 0 1 .157-1.349 1.952 1.952 0 0 0 .067-.519 1.52 1.52 0 0 0-.137-.742.944.944 0 0 0-.464-.4 1.478 1.478 0 0 0-.618-.17h-.024a.92.92 0 0 0-.7.327m-19.513-2.723a3.448 3.448 0 0 1 1.182.732 2.122 2.122 0 0 1 .36.654 2.236 2.236 0 0 1 .2.832 3.136 3.136 0 0 1-.685 2.014 2.837 2.837 0 0 1-2.353.867 12.572 12.572 0 0 1-1.26-.055 15.239 15.239 0 0 1-1.533-.26 15.852 15.852 0 0 0 .067-1.621q0-.947-.092-3.017c.5-.121.919-.206 1.273-.26a8.857 8.857 0 0 1 1.249-.08 5.236 5.236 0 0 1 1.588.194m-1.946-2.106a12.543 12.543 0 0 0-1.78.182 12.152 12.152 0 0 1-1.644.18 1.072 1.072 0 0 0-.779.45 1.45 1.45 0 0 0-.327.721q.161 2.227.159 4.751 0 2.7-.247 5.266-.114 1.194-.114 1.848a.713.713 0 0 0 .362.687 2.459 2.459 0 0 0 1.1.19 1.008 1.008 0 0 0 .732-.327 1.223 1.223 0 0 0 .327-.912c0-.751.009-1.329.022-1.734l.032-2.364q.968.135 1.566.192t1.474.055a5.619 5.619 0 0 0 2.792-.652 4.329 4.329 0 0 0 1.78-1.824 5.729 5.729 0 0 0 .607-2.678 5.864 5.864 0 0 0-1.125-2.478 7.081 7.081 0 0 0-2.061-1.194 9.015 9.015 0 0 0-2.54-.365c-.111 0-.221 0-.33.005m9.455-.926a1.3 1.3 0 0 0-.64.17.978.978 0 0 0-.438.484 6.1 6.1 0 0 0-.114 1.419q0 3.221-.112 5.337-.091 1.778-.092 4.346a4.382 4.382 0 0 0 .407 1.995 2.759 2.759 0 0 0 1.024 1.17 2.356 2.356 0 0 0 1.227.372 2.629 2.629 0 0 0 1.363-.3.943.943 0 0 0 .507-.848.8.8 0 0 0-.17-.495.488.488 0 0 0-.394-.225 2.457 2.457 0 0 0-.4.033 2.528 2.528 0 0 1-.427.035.758.758 0 0 1-.664-.462 2.726 2.726 0 0 1-.26-1.317q0-2.725.182-6.687c0-.317.014-.818.047-1.51.045-.571.066-1.163.066-1.779a5.744 5.744 0 0 0-.035-.732 2.651 2.651 0 0 0-.126-.529.621.621 0 0 0-.349-.362 1.506 1.506 0 0 0-.571-.112h-.024" transform="translate(-41.926 -20.597)" fill="none"/></clipPath><linearGradient id="a" x1="-.32" y1="2.961" x2="-.306" y2="2.961" gradientUnits="objectBoundingBox"><stop offset="0" stop-color="#518afb"/><stop offset="1" stop-color="#731ffd"/></linearGradient><clipPath id="c"><path data-name="Path 30" d="M49.08 10.872c-18.518 3.419-26.274 17.663-28.846 27.957a1.227 1.227 0 0 0 2.166 1.042.526.526 0 0 0 .083-.182c2.4-9.661 8.917-22.443 26.521-26.306a.341.341 0 0 1 .306.071.287.287 0 0 1 .111.239c-.106 4.536-1.157 15.721-8.521 23.45a.549.549 0 0 1-.483.164l-3.005-.462a2.021 2.021 0 0 0-2.306 1.687 37.017 37.017 0 0 0 .547 4.327.545.545 0 0 1-.208.514 33.943 33.943 0 0 1-11.9 5.888.55.55 0 0 1-.612-.81c3.462-5.811 8.509-12.813 14.178-16.036a1.257 1.257 0 0 0-1.244-2.185 26.315 26.315 0 0 0-4.767 3.554 44.042 44.042 0 0 0-4.3 4.623 66.33 66.33 0 0 0-3.735 5.09q-1.235 1.853-2.372 3.766-.69 1.163-1.348 2.346-1.734 3.122-3.23 6.365c-.029.064-.133.206-.133.273a2.431 2.431 0 0 1-.152.369 1.255 1.255 0 0 0 2.287 1.035l.014-.031c.026-.062.907-2.062 2.439-4.952a.553.553 0 0 1 .394-.284 35.335 35.335 0 0 0 16.931-7.766l.28-.256a.547.547 0 0 0 .173-.483l-.548-3.716a.548.548 0 0 1 .465-.621.57.57 0 0 1 .163 0L41.3 40a.551.551 0 0 0 .462-.142C50.393 31.769 51.9 18.7 51.934 13.755a2.845 2.845 0 0 0-2.723-2.893h-.017a.8.8 0 0 0-.114.01" transform="translate(-15.708 -10.862)" fill="none"/></clipPath><linearGradient id="d" x1="-.121" y1="1.304" x2="-.097" y2="1.304" xlink:href="#a"/></defs><g data-name="Group 11"><g data-name="Group 8"><g data-name="Group 7" transform="translate(45.36 16.843)" clip-path="url(#b)"><path data-name="Path 27" d="M150.842 31.615L87.18 16.118l-63.662 15.5 63.662 15.5z" transform="translate(-55.366 -23.867)" fill="url(#a)"/></g></g><g data-name="Group 10"><g data-name="Group 9" clip-path="url(#c)"><path data-name="Path 29" d="M41.206-2.947L5.1 45.17l36.679 47.368 36.105-48.117z" transform="translate(-23.453 -20.944)" fill="url(#d)"/></g></g></g></svg>